<svg width="30" height="30" viewBox="0 0 30 30" fill="none" xmlns="http://www.w3.org/2000/svg">
<mask id="mask0_3501_1515" style="mask-type:alpha" maskUnits="userSpaceOnUse" x="0" y="0" width="30" height="30">
<rect width="30" height="30" fill="#D9D9D9"/>
</mask>
<g mask="url(#mask0_3501_1515)">
<path d="M10.125 26.5156C8.60417 25.8594 7.28125 24.9688 6.15625 23.8438C5.03125 22.7188 4.14063 21.3958 3.48438 19.875C2.82812 18.3542 2.5 16.7292 2.5 15C2.5 13.2708 2.82812 11.6458 3.48438 10.125C4.14063 8.60417 5.03125 7.28125 6.15625 6.15625C7.28125 5.03125 8.60417 4.14063 10.125 3.48438C11.6458 2.82812 13.2708 2.5 15 2.5C16.7292 2.5 18.3542 2.82812 19.875 3.48438C21.3958 4.14063 22.7188 5.03125 23.8438 6.15625C24.9688 7.28125 25.8594 8.60417 26.5156 10.125C27.1719 11.6458 27.5 13.2708 27.5 15C27.5 16.7292 27.1719 18.3542 26.5156 19.875C25.8594 21.3958 24.9688 22.7188 23.8438 23.8438C22.7188 24.9688 21.3958 25.8594 19.875 26.5156C18.3542 27.1719 16.7292 27.5 15 27.5C13.2708 27.5 11.6458 27.1719 10.125 26.5156ZM15 25C16.1667 25 17.2656 24.8177 18.2969 24.4531C19.3281 24.0885 20.2708 23.5729 21.125 22.9062L19.3438 21.125C18.7396 21.5625 18.0677 21.901 17.3281 22.1406C16.5885 22.3802 15.8125 22.5 15 22.5C12.9167 22.5 11.1458 21.7708 9.6875 20.3125C8.22917 18.8542 7.5 17.0833 7.5 15C7.5 12.9167 8.22917 11.1458 9.6875 9.6875C11.1458 8.22917 12.9167 7.5 15 7.5C17.0833 7.5 18.8542 8.22917 20.3125 9.6875C21.7708 11.1458 22.5 12.9167 22.5 15C22.5 15.8125 22.375 16.5938 22.125 17.3438C21.875 18.0938 21.5312 18.7708 21.0938 19.375L22.875 21.1562C23.5417 20.3021 24.0625 19.3542 24.4375 18.3125C24.8125 17.2708 25 16.1667 25 15C25 12.2083 24.0312 9.84375 22.0938 7.90625C20.1562 5.96875 17.7917 5 15 5C12.2083 5 9.84375 5.96875 7.90625 7.90625C5.96875 9.84375 5 12.2083 5 15C5 17.7917 5.96875 20.1562 7.90625 22.0938C9.84375 24.0312 12.2083 25 15 25ZM15 20C15.4583 20 15.901 19.9427 16.3281 19.8281C16.7552 19.7135 17.1563 19.5417 17.5313 19.3125L15.625 17.4062C15.5208 17.4479 15.4167 17.474 15.3125 17.4844C15.2083 17.4948 15.1042 17.5 15 17.5C14.3125 17.5 13.724 17.2552 13.2344 16.7656C12.7448 16.276 12.5 15.6875 12.5 15C12.5 14.3125 12.7448 13.724 13.2344 13.2344C13.724 12.7448 14.3125 12.5 15 12.5C15.6875 12.5 16.276 12.7448 16.7656 13.2344C17.2552 13.724 17.5 14.3125 17.5 15C17.5 15.125 17.4948 15.2448 17.4844 15.3594C17.474 15.474 17.4479 15.5833 17.4062 15.6875L19.2812 17.5625C19.5104 17.1875 19.6875 16.7865 19.8125 16.3594C19.9375 15.9323 20 15.4792 20 15C20 13.625 19.5104 12.4479 18.5312 11.4688C17.5521 10.4896 16.375 10 15 10C13.625 10 12.4479 10.4896 11.4688 11.4688C10.4896 12.4479 10 13.625 10 15C10 16.375 10.4896 17.5521 11.4688 18.5312C12.4479 19.5104 13.625 20 15 20Z" fill="#1C1B1F"/>
</g>
</svg>
